<svg width="351" height="122" viewBox="0 0 351 122" fill="none" xmlns="http://www.w3.org/2000/svg">
<path d="M145.92 89.36V43.92H128V33.36H176.8L173 39.5L170 43.92H158.88V89.36H145.92Z" fill="#00B894"/>
<path d="M180.356 89.36V46.32H192.276V58.48L190.596 54.96C191.876 51.92 193.929 49.6267 196.756 48.08C199.582 46.48 203.022 45.68 207.076 45.68V57.2C206.542 57.1467 206.062 57.12 205.636 57.12C205.209 57.0667 204.756 57.04 204.276 57.04C200.862 57.04 198.089 58.0267 195.956 60C193.876 61.92 192.836 64.9333 192.836 69.04V89.36H180.356Z" fill="#00B894"/>
<path d="M236.484 89.36V80.96L235.684 79.12V64.08C235.684 61.4133 234.857 59.3333 233.204 57.84C231.604 56.3467 229.124 55.6 225.764 55.6C223.47 55.6 221.204 55.9733 218.964 56.72C216.777 57.4133 214.91 58.3733 213.364 59.6L208.884 50.88C211.23 49.2267 214.057 47.9467 217.364 47.04C220.67 46.1333 224.03 45.68 227.444 45.68C234.004 45.68 239.097 47.2267 242.724 50.32C246.35 53.4133 248.164 58.24 248.164 64.8V89.36H236.484ZM223.364 90C220.004 90 217.124 89.44 214.724 88.32C212.324 87.1467 210.484 85.5733 209.204 83.6C207.924 81.6267 207.284 79.4133 207.284 76.96C207.284 74.4 207.897 72.16 209.124 70.24C210.404 68.32 212.404 66.8267 215.124 65.76C217.844 64.64 221.39 64.08 225.764 64.08H237.204V71.36H227.124C224.19 71.36 222.164 71.84 221.044 72.8C219.977 73.76 219.444 74.96 219.444 76.4C219.444 78 220.057 79.28 221.284 80.24C222.564 81.1467 224.297 81.6 226.484 81.6C228.564 81.6 230.43 81.12 232.084 80.16C233.737 79.1467 234.937 77.68 235.684 75.76L237.604 81.52C236.697 84.2933 235.044 86.4 232.644 87.84C230.244 89.28 227.15 90 223.364 90Z" fill="#00B894"/>
<path d="M278.971 90C274.331 90 270.198 89.0667 266.571 87.2C262.945 85.28 260.091 82.64 258.011 79.28C255.985 75.92 254.971 72.1067 254.971 67.84C254.971 63.52 255.985 59.7067 258.011 56.4C260.091 53.04 262.945 50.4267 266.571 48.56C270.198 46.64 274.331 45.68 278.971 45.68C283.505 45.68 287.451 46.64 290.811 48.56C294.171 50.4267 296.651 53.12 298.251 56.64L288.571 61.84C287.451 59.8133 286.038 58.32 284.331 57.36C282.678 56.4 280.865 55.92 278.891 55.92C276.758 55.92 274.838 56.4 273.131 57.36C271.425 58.32 270.065 59.68 269.051 61.44C268.091 63.2 267.611 65.3333 267.611 67.84C267.611 70.3467 268.091 72.48 269.051 74.24C270.065 76 271.425 77.36 273.131 78.32C274.838 79.28 276.758 79.76 278.891 79.76C280.865 79.76 282.678 79.3067 284.331 78.4C286.038 77.44 287.451 75.92 288.571 73.84L298.251 79.12C296.651 82.5867 294.171 85.28 290.811 87.2C287.451 89.0667 283.505 90 278.971 90Z" fill="#00B894"/>
<path d="M313.923 80.56L314.243 65.36L334.323 46.32H349.203L329.923 65.92L323.443 71.2L313.923 80.56ZM303.603 89.36V30H316.083V89.36H303.603ZM335.683 89.36L321.123 71.28L328.963 61.6L350.803 89.36H335.683Z" fill="#00B894"/>
<rect x="147.673" y="37.2813" width="14.6615" height="58.9477" transform="rotate(31.6116 147.673 37.2813)" fill="#F8F9FA"/>
<rect x="179.075" y="52.8158" width="14.3669" height="34.9318" rx="2" transform="rotate(121.612 179.075 52.8158)" fill="#F8F9FA"/>
<rect x="172.777" y="63.0199" width="14.5621" height="50.5421" rx="2" transform="rotate(-148.388 172.777 63.0199)" fill="#F8F9FA"/>
<path d="M200.723 0.61759C202.081 -0.123849 203.73 0.891391 203.68 2.4378L202.953 24.8671C202.896 26.6126 200.787 27.4522 199.546 26.2229L192.086 18.8297C191.868 18.6137 191.603 18.4507 191.312 18.3535L181.35 15.0238C179.694 14.4701 179.493 12.2084 181.026 11.3715L200.723 0.61759Z" fill="#F8F9FA"/>
<rect x="150.719" y="39.887" width="6.69094" height="54.5183" transform="rotate(31.6116 150.719 39.887)" fill="#00B894"/>
<rect x="173.512" y="53.9155" width="6.69094" height="26.7638" transform="rotate(121.612 173.512 53.9155)" fill="#00B894"/>
<rect x="170.004" y="59.6136" width="6.69094" height="49.0193" transform="rotate(-148.388 170.004 59.6136)" fill="#00B894"/>
<path d="M199.993 4.06208L199.449 23.3695L192.394 16.4081L183 13.2454L199.993 4.06208Z" fill="#00B894"/>
<path d="M18.64 58.2H45.52V68.6H18.64V58.2ZM19.6 89H6.64V33H48.96V43.4H19.6V89ZM55.2538 89V45.96H67.7338V89H55.2538ZM61.4938 39.96C59.2004 39.96 57.3338 39.2933 55.8938 37.96C54.4538 36.6267 53.7338 34.9733 53.7338 33C53.7338 31.0267 54.4538 29.3733 55.8938 28.04C57.3338 26.7067 59.2004 26.04 61.4938 26.04C63.7871 26.04 65.6538 26.68 67.0938 27.96C68.5338 29.1867 69.2538 30.7867 69.2538 32.76C69.2538 34.84 68.5338 36.5733 67.0938 37.96C65.7071 39.2933 63.8404 39.96 61.4938 39.96ZM103.876 45.32C107.29 45.32 110.33 46.0133 112.996 47.4C115.716 48.7333 117.85 50.8133 119.396 53.64C120.943 56.4133 121.716 59.9867 121.716 64.36V89H109.236V66.28C109.236 62.8133 108.463 60.2533 106.916 58.6C105.423 56.9467 103.29 56.12 100.516 56.12C98.5429 56.12 96.7563 56.5467 95.1563 57.4C93.6096 58.2 92.3829 59.4533 91.4763 61.16C90.6229 62.8667 90.1963 65.0533 90.1963 67.72V89H77.7163V45.96H89.6363V57.88L87.3963 54.28C88.9429 51.4 91.1563 49.1867 94.0363 47.64C96.9163 46.0933 100.196 45.32 103.876 45.32Z" fill="#333333"/>
<path d="M57 121V108.28H52.08V107H63.4V108.28H58.48V121H57ZM65.5909 121V110.5H66.9509V113.36L66.8109 112.86C67.1043 112.06 67.5976 111.453 68.2909 111.04C68.9843 110.613 69.8443 110.4 70.8709 110.4V111.78C70.8176 111.78 70.7643 111.78 70.7109 111.78C70.6576 111.767 70.6043 111.76 70.5509 111.76C69.4443 111.76 68.5776 112.1 67.9509 112.78C67.3243 113.447 67.0109 114.4 67.0109 115.64V121H65.5909ZM79.6608 121V118.68L79.6008 118.3V114.42C79.6008 113.527 79.3474 112.84 78.8408 112.36C78.3474 111.88 77.6074 111.64 76.6208 111.64C75.9408 111.64 75.2941 111.753 74.6808 111.98C74.0674 112.207 73.5474 112.507 73.1208 112.88L72.4808 111.82C73.0141 111.367 73.6541 111.02 74.4008 110.78C75.1474 110.527 75.9341 110.4 76.7608 110.4C78.1208 110.4 79.1674 110.74 79.9008 111.42C80.6474 112.087 81.0208 113.107 81.0208 114.48V121H79.6608ZM76.0408 121.1C75.2541 121.1 74.5674 120.973 73.9808 120.72C73.4074 120.453 72.9674 120.093 72.6608 119.64C72.3541 119.173 72.2008 118.64 72.2008 118.04C72.2008 117.493 72.3274 117 72.5808 116.56C72.8474 116.107 73.2741 115.747 73.8608 115.48C74.4608 115.2 75.2608 115.06 76.2608 115.06H79.8808V116.12H76.3008C75.2874 116.12 74.5808 116.3 74.1808 116.66C73.7941 117.02 73.6008 117.467 73.6008 118C73.6008 118.6 73.8341 119.08 74.3008 119.44C74.7674 119.8 75.4208 119.98 76.2608 119.98C77.0608 119.98 77.7474 119.8 78.3208 119.44C78.9074 119.067 79.3341 118.533 79.6008 117.84L79.9208 118.82C79.6541 119.513 79.1874 120.067 78.5208 120.48C77.8674 120.893 77.0408 121.1 76.0408 121.1ZM89.6377 121.1C88.5977 121.1 87.6643 120.873 86.8377 120.42C86.0243 119.953 85.3843 119.32 84.9177 118.52C84.451 117.707 84.2177 116.78 84.2177 115.74C84.2177 114.687 84.451 113.76 84.9177 112.96C85.3843 112.16 86.0243 111.533 86.8377 111.08C87.6643 110.627 88.5977 110.4 89.6377 110.4C90.531 110.4 91.3377 110.573 92.0577 110.92C92.7777 111.267 93.3443 111.787 93.7577 112.48L92.6977 113.2C92.3377 112.667 91.891 112.273 91.3577 112.02C90.8243 111.767 90.2443 111.64 89.6177 111.64C88.871 111.64 88.1977 111.813 87.5977 112.16C86.9977 112.493 86.5243 112.967 86.1777 113.58C85.831 114.193 85.6577 114.913 85.6577 115.74C85.6577 116.567 85.831 117.287 86.1777 117.9C86.5243 118.513 86.9977 118.993 87.5977 119.34C88.1977 119.673 88.871 119.84 89.6177 119.84C90.2443 119.84 90.8243 119.713 91.3577 119.46C91.891 119.207 92.3377 118.82 92.6977 118.3L93.7577 119.02C93.3443 119.7 92.7777 120.22 92.0577 120.58C91.3377 120.927 90.531 121.1 89.6377 121.1ZM97.9109 118.28L97.9509 116.46L104.491 110.5H106.231L101.611 114.92L100.811 115.6L97.9109 118.28ZM96.7909 121V106.16H98.2109V121H96.7909ZM104.931 121L100.551 115.54L101.471 114.44L106.671 121H104.931ZM117.657 121.1C116.79 121.1 115.97 120.98 115.197 120.74C114.424 120.487 113.817 120.173 113.377 119.8L114.017 118.68C114.444 119 114.99 119.28 115.657 119.52C116.324 119.747 117.024 119.86 117.757 119.86C118.757 119.86 119.477 119.707 119.917 119.4C120.357 119.08 120.577 118.66 120.577 118.14C120.577 117.753 120.45 117.453 120.197 117.24C119.957 117.013 119.637 116.847 119.237 116.74C118.837 116.62 118.39 116.52 117.897 116.44C117.404 116.36 116.91 116.267 116.417 116.16C115.937 116.053 115.497 115.9 115.097 115.7C114.697 115.487 114.37 115.2 114.117 114.84C113.877 114.48 113.757 114 113.757 113.4C113.757 112.827 113.917 112.313 114.237 111.86C114.557 111.407 115.024 111.053 115.637 110.8C116.264 110.533 117.024 110.4 117.917 110.4C118.597 110.4 119.277 110.493 119.957 110.68C120.637 110.853 121.197 111.087 121.637 111.38L121.017 112.52C120.55 112.2 120.05 111.973 119.517 111.84C118.984 111.693 118.45 111.62 117.917 111.62C116.97 111.62 116.27 111.787 115.817 112.12C115.377 112.44 115.157 112.853 115.157 113.36C115.157 113.76 115.277 114.073 115.517 114.3C115.77 114.527 116.097 114.707 116.497 114.84C116.91 114.96 117.357 115.06 117.837 115.14C118.33 115.22 118.817 115.32 119.297 115.44C119.79 115.547 120.237 115.7 120.637 115.9C121.05 116.087 121.377 116.36 121.617 116.72C121.87 117.067 121.997 117.527 121.997 118.1C121.997 118.713 121.824 119.247 121.477 119.7C121.144 120.14 120.65 120.487 119.997 120.74C119.357 120.98 118.577 121.1 117.657 121.1ZM138.123 110.4C138.976 110.4 139.716 110.567 140.343 110.9C140.983 111.22 141.476 111.713 141.823 112.38C142.183 113.047 142.363 113.887 142.363 114.9V121H140.943V115.04C140.943 113.933 140.676 113.1 140.143 112.54C139.623 111.967 138.883 111.68 137.923 111.68C137.203 111.68 136.576 111.833 136.043 112.14C135.523 112.433 135.116 112.867 134.823 113.44C134.543 114 134.403 114.68 134.403 115.48V121H132.983V115.04C132.983 113.933 132.716 113.1 132.183 112.54C131.649 111.967 130.903 111.68 129.943 111.68C129.236 111.68 128.616 111.833 128.083 112.14C127.549 112.433 127.136 112.867 126.843 113.44C126.563 114 126.423 114.68 126.423 115.48V121H125.003V110.5H126.363V113.34L126.143 112.84C126.463 112.08 126.976 111.487 127.683 111.06C128.403 110.62 129.249 110.4 130.223 110.4C131.249 110.4 132.123 110.66 132.843 111.18C133.563 111.687 134.029 112.453 134.243 113.48L133.683 113.26C133.989 112.407 134.529 111.72 135.303 111.2C136.089 110.667 137.029 110.4 138.123 110.4ZM153.194 121V118.68L153.134 118.3V114.42C153.134 113.527 152.88 112.84 152.374 112.36C151.88 111.88 151.14 111.64 150.154 111.64C149.474 111.64 148.827 111.753 148.214 111.98C147.6 112.207 147.08 112.507 146.654 112.88L146.014 111.82C146.547 111.367 147.187 111.02 147.934 110.78C148.68 110.527 149.467 110.4 150.294 110.4C151.654 110.4 152.7 110.74 153.434 111.42C154.18 112.087 154.554 113.107 154.554 114.48V121H153.194ZM149.574 121.1C148.787 121.1 148.1 120.973 147.514 120.72C146.94 120.453 146.5 120.093 146.194 119.64C145.887 119.173 145.734 118.64 145.734 118.04C145.734 117.493 145.86 117 146.114 116.56C146.38 116.107 146.807 115.747 147.394 115.48C147.994 115.2 148.794 115.06 149.794 115.06H153.414V116.12H149.834C148.82 116.12 148.114 116.3 147.714 116.66C147.327 117.02 147.134 117.467 147.134 118C147.134 118.6 147.367 119.08 147.834 119.44C148.3 119.8 148.954 119.98 149.794 119.98C150.594 119.98 151.28 119.8 151.854 119.44C152.44 119.067 152.867 118.533 153.134 117.84L153.454 118.82C153.187 119.513 152.72 120.067 152.054 120.48C151.4 120.893 150.574 121.1 149.574 121.1ZM158.81 121V110.5H160.17V113.36L160.03 112.86C160.324 112.06 160.817 111.453 161.51 111.04C162.204 110.613 163.064 110.4 164.09 110.4V111.78C164.037 111.78 163.984 111.78 163.93 111.78C163.877 111.767 163.824 111.76 163.77 111.76C162.664 111.76 161.797 112.1 161.17 112.78C160.544 113.447 160.23 114.4 160.23 115.64V121H158.81ZM170.851 121.1C169.864 121.1 169.104 120.833 168.571 120.3C168.037 119.767 167.771 119.013 167.771 118.04V108.18H169.191V117.96C169.191 118.573 169.344 119.047 169.651 119.38C169.971 119.713 170.424 119.88 171.011 119.88C171.637 119.88 172.157 119.7 172.571 119.34L173.071 120.36C172.791 120.613 172.451 120.8 172.051 120.92C171.664 121.04 171.264 121.1 170.851 121.1ZM165.891 111.68V110.5H172.391V111.68H165.891ZM180.145 121.1C179.051 121.1 178.091 120.873 177.265 120.42C176.438 119.953 175.791 119.32 175.325 118.52C174.858 117.707 174.625 116.78 174.625 115.74C174.625 114.7 174.845 113.78 175.285 112.98C175.738 112.18 176.351 111.553 177.125 111.1C177.911 110.633 178.791 110.4 179.765 110.4C180.751 110.4 181.625 110.627 182.385 111.08C183.158 111.52 183.765 112.147 184.205 112.96C184.645 113.76 184.865 114.687 184.865 115.74C184.865 115.807 184.858 115.88 184.845 115.96C184.845 116.027 184.845 116.1 184.845 116.18H175.705V115.12H184.085L183.525 115.54C183.525 114.78 183.358 114.107 183.025 113.52C182.705 112.92 182.265 112.453 181.705 112.12C181.145 111.787 180.498 111.62 179.765 111.62C179.045 111.62 178.398 111.787 177.825 112.12C177.251 112.453 176.805 112.92 176.485 113.52C176.165 114.12 176.005 114.807 176.005 115.58V115.8C176.005 116.6 176.178 117.307 176.525 117.92C176.885 118.52 177.378 118.993 178.005 119.34C178.645 119.673 179.371 119.84 180.185 119.84C180.825 119.84 181.418 119.727 181.965 119.5C182.525 119.273 183.005 118.927 183.405 118.46L184.205 119.38C183.738 119.94 183.151 120.367 182.445 120.66C181.751 120.953 180.985 121.1 180.145 121.1ZM188.155 121V110.5H189.515V113.36L189.375 112.86C189.668 112.06 190.162 111.453 190.855 111.04C191.548 110.613 192.408 110.4 193.435 110.4V111.78C193.382 111.78 193.328 111.78 193.275 111.78C193.222 111.767 193.168 111.76 193.115 111.76C192.008 111.76 191.142 112.1 190.515 112.78C189.888 113.447 189.575 114.4 189.575 115.64V121H188.155ZM196.527 121.1C196.234 121.1 195.98 120.993 195.767 120.78C195.567 120.567 195.467 120.307 195.467 120C195.467 119.68 195.567 119.42 195.767 119.22C195.98 119.02 196.234 118.92 196.527 118.92C196.82 118.92 197.067 119.02 197.267 119.22C197.48 119.42 197.587 119.68 197.587 120C197.587 120.307 197.48 120.567 197.267 120.78C197.067 120.993 196.82 121.1 196.527 121.1ZM210.82 121.12C209.78 121.12 208.78 120.953 207.82 120.62C206.873 120.273 206.14 119.833 205.62 119.3L206.2 118.16C206.693 118.64 207.353 119.047 208.18 119.38C209.02 119.7 209.9 119.86 210.82 119.86C211.7 119.86 212.413 119.753 212.96 119.54C213.52 119.313 213.926 119.013 214.18 118.64C214.446 118.267 214.58 117.853 214.58 117.4C214.58 116.853 214.42 116.413 214.1 116.08C213.793 115.747 213.386 115.487 212.88 115.3C212.373 115.1 211.813 114.927 211.2 114.78C210.586 114.633 209.973 114.48 209.36 114.32C208.746 114.147 208.18 113.92 207.66 113.64C207.153 113.36 206.74 112.993 206.42 112.54C206.113 112.073 205.96 111.467 205.96 110.72C205.96 110.027 206.14 109.393 206.5 108.82C206.873 108.233 207.44 107.767 208.2 107.42C208.96 107.06 209.933 106.88 211.12 106.88C211.906 106.88 212.686 106.993 213.46 107.22C214.233 107.433 214.9 107.733 215.46 108.12L214.96 109.3C214.36 108.9 213.72 108.607 213.04 108.42C212.373 108.233 211.726 108.14 211.1 108.14C210.26 108.14 209.566 108.253 209.02 108.48C208.473 108.707 208.066 109.013 207.8 109.4C207.546 109.773 207.42 110.2 207.42 110.68C207.42 111.227 207.573 111.667 207.88 112C208.2 112.333 208.613 112.593 209.12 112.78C209.64 112.967 210.206 113.133 210.82 113.28C211.433 113.427 212.04 113.587 212.64 113.76C213.253 113.933 213.813 114.16 214.32 114.44C214.84 114.707 215.253 115.067 215.56 115.52C215.88 115.973 216.04 116.567 216.04 117.3C216.04 117.98 215.853 118.613 215.48 119.2C215.106 119.773 214.533 120.24 213.76 120.6C213 120.947 212.02 121.12 210.82 121.12ZM225.944 121V118.68L225.884 118.3V114.42C225.884 113.527 225.631 112.84 225.124 112.36C224.631 111.88 223.891 111.64 222.904 111.64C222.224 111.64 221.578 111.753 220.964 111.98C220.351 112.207 219.831 112.507 219.404 112.88L218.764 111.82C219.298 111.367 219.938 111.02 220.684 110.78C221.431 110.527 222.218 110.4 223.044 110.4C224.404 110.4 225.451 110.74 226.184 111.42C226.931 112.087 227.304 113.107 227.304 114.48V121H225.944ZM222.324 121.1C221.538 121.1 220.851 120.973 220.264 120.72C219.691 120.453 219.251 120.093 218.944 119.64C218.638 119.173 218.484 118.64 218.484 118.04C218.484 117.493 218.611 117 218.864 116.56C219.131 116.107 219.558 115.747 220.144 115.48C220.744 115.2 221.544 115.06 222.544 115.06H226.164V116.12H222.584C221.571 116.12 220.864 116.3 220.464 116.66C220.078 117.02 219.884 117.467 219.884 118C219.884 118.6 220.118 119.08 220.584 119.44C221.051 119.8 221.704 119.98 222.544 119.98C223.344 119.98 224.031 119.8 224.604 119.44C225.191 119.067 225.618 118.533 225.884 117.84L226.204 118.82C225.938 119.513 225.471 120.067 224.804 120.48C224.151 120.893 223.324 121.1 222.324 121.1ZM234.066 121L229.406 110.5H230.886L235.166 120.24H234.466L238.806 110.5H240.206L235.526 121H234.066ZM246.773 121.1C245.679 121.1 244.719 120.873 243.893 120.42C243.066 119.953 242.419 119.32 241.953 118.52C241.486 117.707 241.253 116.78 241.253 115.74C241.253 114.7 241.473 113.78 241.913 112.98C242.366 112.18 242.979 111.553 243.753 111.1C244.539 110.633 245.419 110.4 246.393 110.4C247.379 110.4 248.253 110.627 249.013 111.08C249.786 111.52 250.393 112.147 250.833 112.96C251.273 113.76 251.493 114.687 251.493 115.74C251.493 115.807 251.486 115.88 251.473 115.96C251.473 116.027 251.473 116.1 251.473 116.18H242.333V115.12H250.713L250.153 115.54C250.153 114.78 249.986 114.107 249.653 113.52C249.333 112.92 248.893 112.453 248.333 112.12C247.773 111.787 247.126 111.62 246.393 111.62C245.673 111.62 245.026 111.787 244.453 112.12C243.879 112.453 243.433 112.92 243.113 113.52C242.793 114.12 242.633 114.807 242.633 115.58V115.8C242.633 116.6 242.806 117.307 243.153 117.92C243.513 118.52 244.006 118.993 244.633 119.34C245.273 119.673 245.999 119.84 246.813 119.84C247.453 119.84 248.046 119.727 248.593 119.5C249.153 119.273 249.633 118.927 250.033 118.46L250.833 119.38C250.366 119.94 249.779 120.367 249.073 120.66C248.379 120.953 247.613 121.1 246.773 121.1ZM265.838 121.1C264.918 121.1 264.091 120.893 263.358 120.48C262.624 120.053 262.044 119.44 261.618 118.64C261.191 117.84 260.978 116.873 260.978 115.74C260.978 114.593 261.191 113.627 261.618 112.84C262.058 112.04 262.644 111.433 263.378 111.02C264.111 110.607 264.931 110.4 265.838 110.4C266.838 110.4 267.731 110.627 268.518 111.08C269.318 111.52 269.944 112.14 270.398 112.94C270.851 113.74 271.078 114.673 271.078 115.74C271.078 116.793 270.851 117.727 270.398 118.54C269.944 119.34 269.318 119.967 268.518 120.42C267.731 120.873 266.838 121.1 265.838 121.1ZM260.418 121V106.16H261.838V113.6L261.638 115.72L261.778 117.84V121H260.418ZM265.738 119.84C266.484 119.84 267.151 119.673 267.738 119.34C268.324 118.993 268.791 118.513 269.138 117.9C269.484 117.273 269.658 116.553 269.658 115.74C269.658 114.913 269.484 114.193 269.138 113.58C268.791 112.967 268.324 112.493 267.738 112.16C267.151 111.813 266.484 111.64 265.738 111.64C264.991 111.64 264.318 111.813 263.717 112.16C263.131 112.493 262.664 112.967 262.318 113.58C261.984 114.193 261.818 114.913 261.818 115.74C261.818 116.553 261.984 117.273 262.318 117.9C262.664 118.513 263.131 118.993 263.717 119.34C264.318 119.673 264.991 119.84 265.738 119.84ZM278.832 121.1C277.739 121.1 276.779 120.873 275.952 120.42C275.126 119.953 274.479 119.32 274.012 118.52C273.546 117.707 273.312 116.78 273.312 115.74C273.312 114.7 273.532 113.78 273.972 112.98C274.426 112.18 275.039 111.553 275.812 111.1C276.599 110.633 277.479 110.4 278.452 110.4C279.439 110.4 280.312 110.627 281.072 111.08C281.846 111.52 282.452 112.147 282.892 112.96C283.332 113.76 283.552 114.687 283.552 115.74C283.552 115.807 283.546 115.88 283.532 115.96C283.532 116.027 283.532 116.1 283.532 116.18H274.392V115.12H282.772L282.212 115.54C282.212 114.78 282.046 114.107 281.712 113.52C281.392 112.92 280.952 112.453 280.392 112.12C279.832 111.787 279.186 111.62 278.452 111.62C277.732 111.62 277.086 111.787 276.512 112.12C275.939 112.453 275.492 112.92 275.172 113.52C274.852 114.12 274.692 114.807 274.692 115.58V115.8C274.692 116.6 274.866 117.307 275.212 117.92C275.572 118.52 276.066 118.993 276.692 119.34C277.332 119.673 278.059 119.84 278.872 119.84C279.512 119.84 280.106 119.727 280.652 119.5C281.212 119.273 281.692 118.927 282.092 118.46L282.892 119.38C282.426 119.94 281.839 120.367 281.132 120.66C280.439 120.953 279.672 121.1 278.832 121.1ZM290.163 121.1C289.176 121.1 288.416 120.833 287.883 120.3C287.349 119.767 287.083 119.013 287.083 118.04V108.18H288.503V117.96C288.503 118.573 288.656 119.047 288.963 119.38C289.283 119.713 289.736 119.88 290.323 119.88C290.949 119.88 291.469 119.7 291.883 119.34L292.383 120.36C292.103 120.613 291.763 120.8 291.363 120.92C290.976 121.04 290.576 121.1 290.163 121.1ZM285.203 111.68V110.5H291.703V111.68H285.203ZM298.414 121.1C297.427 121.1 296.667 120.833 296.134 120.3C295.601 119.767 295.334 119.013 295.334 118.04V108.18H296.754V117.96C296.754 118.573 296.907 119.047 297.214 119.38C297.534 119.713 297.987 119.88 298.574 119.88C299.201 119.88 299.721 119.7 300.134 119.34L300.634 120.36C300.354 120.613 300.014 120.8 299.614 120.92C299.227 121.04 298.827 121.1 298.414 121.1ZM293.454 111.68V110.5H299.954V111.68H293.454ZM307.708 121.1C306.615 121.1 305.655 120.873 304.828 120.42C304.001 119.953 303.355 119.32 302.888 118.52C302.421 117.707 302.188 116.78 302.188 115.74C302.188 114.7 302.408 113.78 302.848 112.98C303.301 112.18 303.915 111.553 304.688 111.1C305.475 110.633 306.355 110.4 307.328 110.4C308.315 110.4 309.188 110.627 309.948 111.08C310.721 111.52 311.328 112.147 311.768 112.96C312.208 113.76 312.428 114.687 312.428 115.74C312.428 115.807 312.421 115.88 312.408 115.96C312.408 116.027 312.408 116.1 312.408 116.18H303.268V115.12H311.648L311.088 115.54C311.088 114.78 310.921 114.107 310.588 113.52C310.268 112.92 309.828 112.453 309.268 112.12C308.708 111.787 308.061 111.62 307.328 111.62C306.608 111.62 305.961 111.787 305.388 112.12C304.815 112.453 304.368 112.92 304.048 113.52C303.728 114.12 303.568 114.807 303.568 115.58V115.8C303.568 116.6 303.741 117.307 304.088 117.92C304.448 118.52 304.941 118.993 305.568 119.34C306.208 119.673 306.935 119.84 307.748 119.84C308.388 119.84 308.981 119.727 309.528 119.5C310.088 119.273 310.568 118.927 310.968 118.46L311.768 119.38C311.301 119.94 310.715 120.367 310.008 120.66C309.315 120.953 308.548 121.1 307.708 121.1ZM315.718 121V110.5H317.078V113.36L316.938 112.86C317.232 112.06 317.725 111.453 318.418 111.04C319.112 110.613 319.972 110.4 320.998 110.4V111.78C320.945 111.78 320.892 111.78 320.838 111.78C320.785 111.767 320.732 111.76 320.678 111.76C319.572 111.76 318.705 112.1 318.078 112.78C317.452 113.447 317.138 114.4 317.138 115.64V121H315.718ZM324.09 121.1C323.797 121.1 323.544 120.993 323.33 120.78C323.13 120.567 323.03 120.307 323.03 120C323.03 119.68 323.13 119.42 323.33 119.22C323.544 119.02 323.797 118.92 324.09 118.92C324.384 118.92 324.63 119.02 324.83 119.22C325.044 119.42 325.15 119.68 325.15 120C325.15 120.307 325.044 120.567 324.83 120.78C324.63 120.993 324.384 121.1 324.09 121.1Z" fill="#333333"/>
</svg>
